<svg width="40" height="40" viewBox="0 0 40 40" fill="none" xmlns="http://www.w3.org/2000/svg">
<path d="M20 40L37.3205 30V10L20 0L2.67949 10V30L20 40Z" fill="#DD2444"/>
<g clip-path="url(#clip0_194_88)">
<path d="M29.4293 24.1329L25.0543 22.2579C24.8674 22.1783 24.6597 22.1615 24.4624 22.2101C24.2652 22.2587 24.089 22.3701 23.9605 22.5275L22.023 24.8947C18.9823 23.461 16.5352 21.0139 15.1016 17.9732L17.4688 16.0357C17.6264 15.9074 17.738 15.7313 17.7867 15.5339C17.8353 15.3366 17.8183 15.1288 17.7383 14.9419L15.8633 10.5669C15.7754 10.3655 15.6201 10.2011 15.424 10.102C15.2279 10.0028 15.0033 9.97526 14.7891 10.024L10.7266 10.9615C10.52 11.0092 10.3357 11.1255 10.2037 11.2914C10.0718 11.4574 9.99995 11.6631 10 11.8751C10 21.8947 18.1211 30.0001 28.125 30.0001C28.3371 30.0003 28.5429 29.9285 28.709 29.7965C28.875 29.6646 28.9913 29.4802 29.0391 29.2736L29.9766 25.2111C30.025 24.9958 29.9968 24.7703 29.8969 24.5736C29.797 24.3768 29.6317 24.221 29.4293 24.1329Z" fill="white"/>
</g>
<defs>
<clipPath id="clip0_194_88">
<rect width="20" height="20" fill="white" transform="translate(10 10)"/>
</clipPath>
</defs>
</svg>
