<svg width="40" height="40" viewBox="0 0 40 40" fill="none" xmlns="http://www.w3.org/2000/svg">
<path d="M20 40L37.3205 30V10L20 0L2.67949 10V30L20 40Z" fill="#DD2444"/>
<g clip-path="url(#clip0_194_33)">
<path d="M32.6094 19.5C32.6094 12.8105 27.1895 7.39062 20.5 7.39062C13.8105 7.39062 8.39062 12.8105 8.39062 19.5C8.39062 25.5439 12.8188 30.5537 18.6079 31.4629V23.0005H15.5317V19.5H18.6079V16.832C18.6079 13.7974 20.4146 12.1211 23.1816 12.1211C24.5068 12.1211 25.8926 12.3574 25.8926 12.3574V15.3359H24.3652C22.8613 15.3359 22.3921 16.2695 22.3921 17.2271V19.5H25.7505L25.2134 23.0005H22.3921V31.4629C28.1812 30.5537 32.6094 25.5439 32.6094 19.5Z" fill="white"/>
</g>
<defs>
<clipPath id="clip0_194_33">
<rect width="25" height="25" fill="white" transform="translate(8 7)"/>
</clipPath>
</defs>
</svg>
